<?xml version="1.0" standalone="no"?>
<!DOCTYPE svg PUBLIC "-//W3C//DTD SVG 20010904//EN"
 "http://www.w3.org/TR/2001/REC-SVG-20010904/DTD/svg10.dtd">
<svg version="1.0" xmlns="http://www.w3.org/2000/svg"
 width="736.000000pt" height="736.000000pt" viewBox="0 0 736.000000 736.000000"
 preserveAspectRatio="xMidYMid meet">

<g transform="translate(0.000000,736.000000) scale(0.100000,-0.100000)"
fill="#000000" stroke="none">
<path d="M0 3680 l0 -3680 3680 0 3680 0 0 3680 0 3680 -3680 0 -3680 0 0
-3680z m3125 3295 c0 -30 -39 -27 -43 3 -3 20 0 23 20 20 15 -2 23 -10 23 -23z
m3225 0 c15 -18 5 -51 -18 -60 -25 -9 -55 31 -42 56 13 23 43 25 60 4z m-5515
-180 c75 -74 -34 -187 -110 -115 -52 49 -16 140 55 140 19 0 40 -9 55 -25z
m1783 -28 c4 -20 -25 -34 -40 -19 -15 15 -1 44 19 40 10 -2 19 -11 21 -21z
m3947 -332 c54 -53 18 -155 -55 -155 -63 0 -102 80 -69 141 22 43 89 50 124
14z m-767 -127 c17 -17 15 -43 -4 -59 -31 -26 -70 25 -44 56 15 18 32 19 48 3z
m-5203 -113 c0 -25 -4 -30 -24 -30 -28 0 -47 25 -38 49 5 12 16 16 34 14 24
-3 28 -8 28 -33z m383 -58 c-4 -29 -32 -44 -52 -28 -23 19 -20 50 7 60 27 11
49 -5 45 -32z m5310 -220 c4 -20 -25 -34 -40 -19 -15 15 -1 44 19 40 10 -2 19
-11 21 -21z m-2668 -23 c74 -16 122 -45 105 -62 -5 -5 -52 -26 -104 -47 -178
-71 -345 -182 -545 -365 -53 -49 -194 -211 -261 -300 -31 -41 -59 -74 -63 -73
-3 1 -12 18 -19 39 -55 157 -302 311 -534 333 l-70 6 83 61 c309 228 617 359
958 409 127 19 366 18 450 -1z m-1724 -142 c29 -19 19 -72 -14 -72 -38 0 -53
37 -26 64 17 18 24 19 40 8z m-38 -366 c6 -29 -15 -43 -35 -24 -14 14 -14 20
-3 33 16 19 34 15 38 -9z m455 -30 c78 -21 196 -81 254 -129 85 -69 154 -194
139 -251 -13 -47 -22 -51 -57 -22 -45 38 -112 70 -199 96 -41 13 -107 42 -146
66 -111 69 -187 96 -339 120 l-40 6 65 60 c36 33 74 64 85 69 28 13 169 3 238
-15z m4735 -18 c-4 -27 -33 -36 -42 -13 -8 22 1 35 25 35 15 0 20 -6 17 -22z
m-2964 -24 c174 -30 331 -93 481 -192 86 -57 268 -236 323 -319 214 -319 270
-719 152 -1075 -118 -352 -396 -635 -748 -762 -255 -91 -562 -90 -825 5 -88
32 -89 33 -129 95 -69 110 -152 171 -278 203 -74 19 -97 39 -181 163 l-39 56
28 59 c26 57 27 62 26 243 0 152 -4 203 -22 288 -39 180 -75 252 -139 278 -20
9 -33 21 -33 32 0 21 48 165 78 233 93 214 298 435 516 556 120 68 307 130
441 146 80 10 268 5 349 -9z m-2005 -144 c40 -11 93 -31 118 -43 l45 -23 -114
4 c-123 5 -228 -8 -317 -38 -30 -10 -57 -18 -58 -17 -1 1 25 33 59 70 l60 67
67 0 c36 0 99 -9 140 -20z m204 -121 c47 -10 66 -20 107 -61 51 -50 84 -101
73 -112 -4 -3 -1 -6 5 -6 16 0 52 -123 52 -176 0 -25 -7 -61 -15 -80 l-15 -36
-41 61 c-63 94 -200 197 -346 259 -109 46 -206 66 -320 66 -98 0 -101 1 -75
16 54 32 133 60 209 75 88 17 272 14 366 -6z m211 -61 c25 -12 43 -25 40 -29
-2 -4 5 -5 16 -2 11 3 20 1 20 -5 0 -5 9 -12 21 -15 12 -3 18 -10 15 -15 -3
-5 1 -9 10 -8 9 0 21 -6 26 -14 7 -11 -1 -34 -33 -89 l-42 -74 -13 52 c-15 57
-45 121 -78 166 -47 63 -46 65 18 33z m-528 -88 c144 -37 392 -180 379 -218
-3 -7 -1 -11 4 -7 13 8 81 -78 96 -122 14 -40 18 -22 -60 -228 -64 -169 -118
-432 -130 -630 -19 -309 68 -676 231 -965 l47 -83 -17 -47 c-27 -74 -30 -145
-12 -269 29 -192 89 -350 165 -434 21 -23 50 -68 64 -99 54 -120 130 -207 221
-253 28 -14 62 -25 77 -25 17 0 32 -9 43 -25 9 -14 31 -38 49 -55 26 -24 33
-38 35 -72 2 -48 20 -135 33 -160 5 -10 1 -45 -12 -95 -15 -55 -22 -112 -23
-194 l-1 -116 -107 28 c-444 116 -822 330 -1155 652 -432 418 -686 924 -775
1542 -8 55 -13 181 -12 325 0 194 4 258 22 364 66 386 211 754 420 1067 63 93
83 116 112 126 57 19 216 16 306 -7z m3534 -65 c26 -31 -13 -82 -44 -56 -16
14 -22 52 -9 64 11 12 40 8 53 -8z m-5062 -227 c19 -19 14 -48 -10 -57 -28
-11 -48 3 -48 34 0 32 35 46 58 23z m4736 -129 c49 -57 77 -267 57 -409 -15
-102 -35 -154 -66 -174 -27 -18 -39 -20 -31 -7 3 4 10 58 16 118 14 154 -4
319 -56 500 -6 22 -5 22 25 12 17 -6 42 -24 55 -40z m296 -94 c15 -18 6 -45
-13 -45 -8 0 -20 7 -27 15 -10 12 -10 18 0 30 16 19 24 19 40 0z m-2738 -85
c35 -27 63 -97 90 -225 30 -145 33 -437 6 -498 -20 -43 -51 -58 -103 -50 -28
5 -35 9 -29 22 24 55 36 154 31 261 -9 188 -46 332 -112 431 l-34 50 32 14
c45 20 90 18 119 -5z m-140 -116 c75 -136 110 -449 65 -584 -7 -19 -19 -35
-27 -35 -19 0 -75 111 -94 187 -23 92 -39 256 -33 340 7 85 30 152 49 146 7
-3 25 -27 40 -54z m3759 -184 c36 -20 13 -76 -28 -68 -22 4 -29 43 -13 64 15
17 16 17 41 4z m-5421 -55 c0 -18 -5 -25 -19 -25 -11 0 -23 5 -26 10 -11 18 3
40 25 40 15 0 20 -7 20 -25z m4180 -266 c0 -37 -51 -112 -66 -97 -2 3 7 33 22
66 26 60 44 72 44 31z m77 -100 c32 -78 30 -105 -9 -129 -51 -31 -86 -27 -102
13 -28 67 -28 72 2 89 16 9 37 33 47 53 11 19 24 34 29 32 6 -2 20 -28 33 -58z
m1838 -64 c44 -43 31 -112 -25 -135 -35 -15 -84 0 -100 31 -30 55 10 129 70
129 19 0 40 -9 55 -25z m-4537 -17 c7 -7 12 -27 12 -45 0 -24 -7 -37 -26 -50
-24 -15 -29 -15 -53 -2 -29 16 -39 56 -21 89 12 23 68 28 88 8z m2733 -169
c-5 -40 -16 -76 -23 -81 -16 -11 -106 -4 -119 9 -6 6 -7 34 -2 72 l8 63 41 3
c23 2 55 10 70 18 37 19 39 13 25 -84z m952 60 c16 -12 33 -41 43 -72 22 -71
29 -287 15 -417 -17 -150 -15 -146 -59 -112 -47 37 -94 61 -157 81 -56 18
-185 91 -185 105 0 5 10 23 23 40 39 52 152 237 185 302 17 34 38 69 47 78 22
22 57 20 88 -5z m-3588 -79 c0 -16 -6 -26 -18 -28 -19 -4 -32 20 -23 44 9 25
41 13 41 -16z m380 -97 c-4 -10 -9 -33 -12 -52 -6 -31 -7 -33 -20 -16 -17 25
-17 45 4 67 21 23 37 23 28 1z m150 -15 c2 -2 -8 -22 -23 -45 -23 -35 -31 -41
-52 -36 -52 10 -53 11 -45 51 11 57 19 63 72 47 25 -7 46 -15 48 -17z m2040 2
c19 0 35 -3 35 -7 -1 -11 -52 -105 -72 -134 -17 -23 -19 -23 -60 -9 -22 8 -50
26 -60 40 l-19 26 37 56 37 56 33 -14 c18 -8 49 -14 69 -14z m-323 -12 c9 -7
19 -22 22 -33 5 -19 2 -20 -47 -18 -44 1 -52 4 -49 20 4 20 29 43 47 43 6 0
18 -6 27 -12z m-1614 -54 c23 -19 42 -39 42 -43 0 -5 -18 -20 -41 -35 l-40
-27 -34 28 c-39 33 -42 51 -14 87 27 34 37 33 87 -10z m1487 -22 c-2 -9 -7
-38 -10 -65 -6 -44 -10 -50 -63 -86 -178 -120 -403 -186 -673 -198 -155 -6
-310 9 -453 45 l-69 18 -14 48 c-8 26 -12 50 -10 52 2 3 38 -6 78 -20 253 -84
566 -81 821 10 102 36 234 107 315 169 70 53 84 58 78 27z m134 -21 c11 -7 12
-22 7 -62 -9 -68 -11 -70 -44 -53 -15 7 -35 14 -45 14 -16 0 -17 6 -11 48 4
26 12 50 18 54 15 10 58 10 75 -1z m206 -81 c8 0 15 -4 15 -10 0 -18 -19 -11
-64 24 -25 19 -50 36 -57 38 -7 2 -9 10 -5 17 6 8 20 0 52 -29 24 -22 50 -40
59 -40z m-1952 23 c21 -15 54 -53 73 -83 31 -51 90 -224 101 -297 6 -40 -33
-129 -84 -191 l-36 -45 -29 57 c-16 33 -35 56 -44 56 -9 0 -14 -6 -11 -12 19
-50 40 -129 35 -133 -3 -3 -26 -1 -52 6 -27 7 -85 9 -139 7 -113 -6 -184 -32
-272 -98 -74 -56 -70 -60 -84 78 -13 122 -2 183 51 284 79 153 192 285 313
368 51 35 66 40 99 36 22 -2 57 -17 79 -33z m224 -29 c13 -21 23 -41 23 -44 0
-9 -89 -42 -98 -36 -5 3 -15 20 -23 37 -12 30 -11 33 20 61 18 16 38 27 44 25
7 -2 22 -21 34 -43z m3458 11 c0 -27 -3 -30 -30 -30 -21 0 -31 5 -33 18 -6 33
6 49 35 45 24 -3 28 -8 28 -33z m-1735 -99 c30 -31 62 -56 72 -56 10 0 35 -7
57 -16 34 -14 42 -23 56 -65 27 -80 18 -200 -20 -275 -37 -71 -112 -130 -155
-119 -14 3 -62 9 -107 13 -45 4 -85 11 -89 15 -4 4 -7 47 -5 96 1 52 -4 125
-14 179 l-17 92 30 72 c16 40 33 89 37 108 14 75 12 73 58 41 23 -16 67 -54
97 -85z m-248 17 c23 -21 23 -35 -2 -83 l-20 -38 -31 29 c-17 16 -35 29 -39
29 -5 0 -1 18 7 40 13 32 21 40 41 40 14 0 34 -7 44 -17z m1047 -22 l35 -19
-45 -7 c-24 -3 -53 -9 -63 -12 -18 -5 -17 -3 3 26 26 36 25 36 70 12z m-2471
-33 c10 -37 9 -45 -6 -60 -9 -9 -30 -18 -46 -20 -26 -3 -30 1 -42 35 -14 40
-14 40 51 75 30 17 32 16 43 -30z m1248 -27 c-43 -58 -111 -110 -188 -146 -52
-24 -57 -24 -91 -10 -25 10 -73 15 -149 16 l-113 1 100 18 c55 11 138 31 185
45 84 26 266 110 276 127 4 5 8 7 11 4 3 -3 -11 -28 -31 -55z m1351 -31 c42
-33 104 -114 137 -180 59 -115 57 -119 -29 -51 -93 74 -194 124 -311 153 -49
13 -91 24 -93 26 -16 10 48 48 106 64 79 21 154 16 190 -12z m-1241 -25 c15
-23 14 -26 -4 -52 -26 -37 -62 -69 -62 -55 0 6 -12 24 -26 41 l-25 30 32 40
c35 44 54 43 85 -4z m1439 -57 c38 -32 40 -43 24 -101 l-10 -39 -29 55 c-15
30 -45 78 -65 107 l-37 52 41 -23 c22 -12 57 -36 76 -51z m-2761 16 c16 -62
-72 -107 -94 -48 -15 40 -12 54 13 54 12 0 29 5 37 10 25 16 37 11 44 -16z
m1921 -58 c62 -127 33 -241 -75 -295 -47 -24 -90 -34 -90 -21 0 5 4 10 9 10
17 0 78 94 96 145 17 53 23 173 10 215 -14 43 21 6 50 -54z m-1755 44 c52 -11
149 -23 215 -27 l120 -7 -84 -9 c-102 -10 -133 -25 -156 -72 -15 -32 -20 -36
-43 -30 -46 11 -102 54 -133 102 -30 48 -35 63 -21 63 4 0 50 -9 102 -20z
m2013 -10 c62 -49 40 -145 -50 -212 -63 -48 -71 -78 -20 -78 18 0 42 -6 53
-14 18 -14 18 -16 2 -32 -19 -20 -120 -25 -191 -11 -36 8 -38 10 -24 25 48 53
71 173 47 238 -9 21 -7 31 7 47 51 57 129 74 176 37z m-979 -22 c27 -43 23
-60 -19 -89 -22 -16 -42 -28 -45 -29 -10 0 -39 95 -30 98 5 2 20 12 32 22 30
25 45 25 62 -2z m189 -168 c0 -91 -4 -150 -14 -179 -13 -41 -13 -50 3 -95 20
-58 23 -133 8 -204 -11 -49 -11 -49 -96 -93 -74 -37 -94 -44 -147 -44 -75 0
-133 27 -160 74 l-19 31 30 34 c17 19 33 47 36 63 12 57 26 210 26 288 l1 80
80 39 c57 27 103 60 157 111 72 68 78 72 86 51 5 -11 9 -82 9 -156z m956 164
c125 -31 257 -103 347 -189 24 -24 44 -49 44 -57 0 -48 -103 -289 -176 -411
-70 -116 -163 -252 -231 -337 -205 -255 -492 -498 -756 -640 l-74 -40 -44 42
c-24 24 -53 48 -63 54 -19 10 -19 13 8 100 16 49 39 114 51 144 32 74 49 180
41 249 -4 31 -20 85 -37 120 l-30 64 29 31 c16 17 32 42 35 55 7 30 -14 84
-42 103 -19 14 -20 19 -10 69 11 54 12 55 79 92 37 20 110 65 161 99 83 54
175 99 204 100 6 0 37 -7 70 -16 107 -29 229 -17 260 27 24 34 19 84 -10 103
l-25 16 30 34 c49 57 63 91 58 151 -3 32 -1 53 6 53 5 0 39 -7 75 -16z m-2290
-53 c24 -34 16 -72 -18 -90 -30 -17 -36 -14 -65 27 -31 45 -32 52 -8 52 11 0
27 9 37 20 24 26 30 25 54 -9z m874 -8 c59 -30 67 -60 67 -250 0 -198 -10
-262 -50 -307 l-28 -31 -202 -3 -202 -3 -39 25 c-55 37 -62 72 -57 301 5 203
11 232 57 262 41 27 76 30 256 25 119 -3 178 -9 198 -19z m146 -14 c15 -43 14
-66 -4 -73 -10 -3 -20 8 -34 37 -17 38 -17 43 -3 55 23 18 29 15 41 -19z
m-685 -16 c-7 -16 -14 -38 -14 -50 0 -13 -4 -23 -10 -23 -5 0 -10 5 -10 10 0
6 -11 16 -25 22 -14 6 -25 16 -25 21 0 23 34 47 66 47 33 0 33 0 18 -27z
m-240 -44 c43 -25 46 -50 11 -85 l-25 -25 -39 21 c-47 23 -57 36 -38 47 8 4
22 20 32 36 9 15 19 27 21 27 1 0 19 -9 38 -21z m-69 -142 c28 -14 69 -30 91
-36 l40 -11 11 -136 c8 -112 14 -140 32 -164 26 -36 28 -96 4 -130 -23 -34
-33 -40 -72 -40 -18 0 -60 -7 -94 -16 -95 -24 -164 -4 -225 67 -21 24 -48 42
-71 49 l-39 10 10 43 c14 55 13 235 0 269 -10 25 -7 32 34 80 25 29 60 78 77
109 l31 55 60 -61 c34 -34 84 -74 111 -88z m227 96 c48 -43 0 -100 -76 -89
l-43 7 18 37 c11 20 19 42 19 49 0 19 60 16 82 -4z m55 -238 c2 -92 8 -147 18
-171 l15 -36 -43 7 c-23 4 -46 11 -50 15 -16 15 -27 86 -27 180 l0 96 35 13
c19 7 35 17 35 22 0 5 3 9 8 9 4 0 8 -61 9 -135z m-3292 85 c30 -30 26 -87 -9
-116 -15 -13 -36 -24 -46 -24 -70 0 -112 74 -74 128 31 45 89 50 129 12z
m2588 -27 c26 -8 51 -22 56 -31 20 -38 22 -121 6 -217 -9 -53 -13 -101 -8
-105 4 -4 30 -15 56 -25 57 -21 81 -49 66 -77 -8 -14 -21 -18 -65 -18 -42 0
-56 -4 -61 -17 -6 -16 1 -25 80 -88 l38 -30 -33 -72 c-39 -85 -60 -99 -144
-90 -103 11 -202 96 -264 226 -17 36 -35 74 -41 83 -12 24 -11 28 4 28 8 0 41
14 75 30 69 35 142 101 142 129 0 10 -18 76 -41 146 l-40 127 -34 -5 c-55 -9
-142 -57 -204 -114 -38 -34 -62 -49 -66 -42 -12 19 77 99 150 135 111 54 216
63 328 27z m-165 -161 l35 -112 -29 -31 c-32 -34 -156 -99 -188 -99 -23 0 -36
16 -79 104 -18 37 -26 68 -23 82 11 43 205 182 240 171 5 -2 25 -54 44 -115z
m920 -158 c15 -4 22 -14 22 -30 0 -31 -14 -37 -66 -29 -41 6 -44 9 -44 36 0
26 3 29 33 29 17 0 42 -3 55 -6z m522 -61 c0 -33 -83 -45 -100 -14 -20 38 -12
50 33 53 42 3 67 -11 67 -39z m-154 -18 c18 -46 19 -55 6 -60 -31 -12 -190
-23 -255 -18 l-69 6 7 31 c3 17 9 46 12 64 l6 32 136 0 136 0 21 -55z m648 -6
c9 -14 12 -29 7 -42 -10 -28 -31 -34 -31 -9 0 11 -9 31 -21 46 l-20 26 25 0
c14 0 31 -9 40 -21z m-1038 -19 c27 0 28 -3 14 -29 -9 -17 -12 -18 -57 -3 -59
19 -59 18 -44 36 9 11 19 13 37 5 14 -5 36 -9 50 -9z m598 -5 c24 -18 23 -18
-39 -39 -44 -14 -51 -15 -64 -1 -14 13 -13 15 6 15 11 0 31 9 44 20 29 23 29
23 53 5z m366 -4 c5 -11 10 -27 10 -35 0 -14 -4 -14 -37 1 -21 10 -40 19 -42
20 -7 5 33 32 46 33 7 0 17 -9 23 -19z m-3375 -66 c0 -25 -4 -31 -27 -33 -19
-2 -28 2 -33 18 -8 27 12 52 39 48 16 -2 21 -10 21 -33z m1972 0 c4 -3 -87
-65 -96 -65 -4 0 -16 8 -25 19 -16 18 -16 19 8 25 14 3 30 15 36 26 9 16 14
18 43 8 17 -6 33 -12 34 -13z m1335 -2 c47 -19 94 -71 125 -141 20 -41 25 -69
25 -128 -1 -81 -22 -169 -49 -203 -31 -38 -147 -62 -308 -62 -148 0 -239 15
-327 53 l-48 20 0 65 c0 70 27 162 64 221 33 53 105 116 167 148 102 51 259
63 351 27z m-935 -13 c176 -82 244 -238 174 -395 -12 -26 -21 -60 -21 -75 0
-22 -6 -29 -37 -38 -174 -52 -432 -37 -622 35 l-43 17 4 105 c8 201 80 295
271 357 106 34 194 32 274 -6z m493 5 c7 -8 9 -15 4 -15 -5 0 -25 -15 -46 -34
l-36 -33 -4 33 c-4 38 0 48 22 57 27 10 47 7 60 -8z m-346 -20 c4 -13 2 -14
-14 -5 -23 13 -26 20 -6 20 8 0 16 -7 20 -15z m176 -56 l0 -60 -42 3 -43 3 -3
57 -4 57 39 3 c21 2 41 2 46 0 4 -2 7 -30 7 -63z m50 11 c0 -33 -4 -60 -10
-60 -6 0 -10 27 -10 60 0 33 4 60 10 60 6 0 10 -27 10 -60z m-160 4 c0 -40 -2
-45 -15 -34 -8 7 -15 28 -15 46 0 24 5 34 15 34 11 0 15 -12 15 -46z m125
-141 c-23 -59 -38 -149 -38 -225 l1 -87 -27 14 c-64 35 -64 36 -40 106 16 50
20 80 17 137 l-5 72 50 0 c43 0 48 -2 42 -17z m-935 -123 c0 -23 -13 -26 -29
-6 -9 11 -9 15 1 19 23 10 28 7 28 -13z m3615 -125 c0 -25 -4 -30 -24 -30 -28
0 -47 25 -38 49 5 12 16 16 34 14 24 -3 28 -8 28 -33z m-6007 -7 c17 -17 15
-43 -4 -59 -31 -26 -70 25 -44 56 15 18 32 19 48 3z m2680 -114 c107 -20 329
-15 407 10 28 9 51 16 53 16 4 0 -7 -65 -19 -112 -6 -24 -16 -38 -25 -38 -13
0 -15 8 -10 38 11 64 8 65 -178 57 -103 -5 -169 -12 -174 -19 -5 -6 -12 -36
-16 -66 -5 -39 -13 -60 -29 -72 -38 -29 -11 -31 58 -3 135 54 326 41 409 -27
61 -50 81 -99 81 -199 0 -96 -6 -109 -65 -139 -77 -39 -157 -52 -295 -48 -104
4 -146 10 -208 31 -106 35 -211 98 -227 137 -17 40 -7 164 22 282 20 82 20 89
4 127 -9 23 -16 52 -16 65 l0 24 70 -24 c39 -13 109 -31 158 -40z m756 42
c173 -51 400 -56 526 -12 45 15 46 13 28 -47 -11 -37 -13 -39 -18 -16 -7 27 9
26 -192 14 l-108 -7 -10 -36 c-5 -21 -10 -47 -10 -59 0 -12 -13 -32 -31 -46
-44 -34 -24 -39 42 -11 73 30 171 40 240 24 162 -38 224 -122 204 -275 -7 -61
-24 -83 -83 -111 -69 -33 -136 -44 -253 -44 -133 0 -204 17 -334 81 -126 63
-141 78 -149 145 -5 48 -3 62 17 99 19 34 23 52 19 96 -4 49 -1 59 23 87 l28
33 -16 54 c-9 30 -14 55 -11 55 2 0 42 -11 88 -24z m-176 -29 c28 -15 52 -29
52 -30 0 -2 -9 -20 -20 -42 -13 -25 -20 -59 -20 -95 0 -84 -9 -89 -63 -38
l-45 44 14 60 c7 32 14 76 14 97 0 21 3 37 8 35 4 -2 31 -16 60 -31z m1422
-32 c10 -12 10 -18 0 -29 -14 -18 -40 -10 -40 13 0 32 20 40 40 16z m-744 -37
c-3 -13 -6 -29 -6 -35 0 -9 -20 -13 -67 -13 -64 0 -107 -7 -162 -25 -23 -7
-23 -6 -16 31 4 22 9 41 12 44 4 4 45 8 217 18 25 2 28 -1 22 -20z m-886 -28
l0 -30 -87 0 c-49 0 -113 -7 -143 -15 -73 -20 -70 -21 -70 24 0 39 1 40 38 44
20 2 88 4 150 5 l112 2 0 -30z m-1652 -347 c4 -27 -25 -38 -37 -14 -7 12 -6
22 2 30 16 16 31 9 35 -16z m196 -149 c42 -41 42 -79 3 -121 -28 -32 -80 -31
-112 2 -51 51 -17 135 55 135 22 0 45 -7 54 -16z m-1621 -8 c7 -17 -18 -40
-33 -31 -5 3 -10 15 -10 26 0 23 35 27 43 5z m1225 -69 c4 -20 -25 -34 -40
-19 -15 15 -1 44 19 40 10 -2 19 -11 21 -21z m2652 -43 c11 -12 11 -18 -2 -31
-19 -18 -38 -10 -38 16 0 33 20 40 40 15z m1201 -80 c9 -11 10 -20 2 -32 -15
-24 -44 -27 -59 -7 -28 38 27 75 57 39z m1154 -89 c0 -25 -4 -31 -27 -33 -22
-3 -29 2 -34 22 -8 34 3 48 34 44 23 -2 27 -8 27 -33z"/>
<path d="M3865 5140 c-567 -61 -999 -574 -961 -1141 30 -443 322 -824 736
-963 584 -195 1215 137 1385 729 124 431 -31 894 -390 1163 -92 69 -269 156
-372 182 -81 20 -241 41 -298 38 -16 0 -61 -4 -100 -8z m225 -40 c279 -32 530
-168 703 -380 78 -97 165 -264 196 -379 99 -361 -3 -743 -268 -1012 -257 -260
-639 -365 -995 -274 -181 45 -336 134 -476 273 -283 280 -380 690 -254 1067
33 99 52 138 122 245 129 200 344 357 578 424 146 42 256 52 394 36z"/>
<path d="M3845 5016 c-412 -67 -729 -375 -816 -791 -16 -77 -16 -283 0 -360
95 -458 463 -778 921 -802 625 -32 1123 532 1015 1150 -39 227 -171 453 -344
591 -219 176 -510 256 -776 212z m-42 -206 c52 -58 27 -135 -59 -185 -187
-109 -307 -253 -375 -448 -28 -84 -59 -117 -106 -117 -147 0 -133 193 33 452
79 123 264 285 370 324 55 20 103 11 137 -26z m-473 -897 c26 -29 30 -42 30
-89 0 -48 -4 -59 -29 -85 -34 -33 -60 -36 -102 -12 -58 34 -78 136 -38 187 42
53 92 53 139 -1z m1488 -45 c22 -22 14 -77 -14 -103 -35 -32 -69 -32 -90 0
-13 20 -14 30 -4 60 6 19 19 39 28 45 24 13 66 12 80 -2z m-111 -189 c27 -56
-29 -163 -127 -240 -55 -43 -91 -59 -133 -59 -43 0 -57 16 -57 65 0 66 52 148
134 212 81 63 159 72 183 22z"/>
<path d="M4205 2623 c-33 -8 -74 -54 -81 -90 -24 -129 155 -185 211 -66 16 33
16 41 4 77 -21 58 -79 93 -134 79z m-19 -54 c-14 -17 -26 -40 -26 -53 0 -30
27 -65 64 -83 l31 -14 -30 6 c-73 16 -102 99 -50 150 34 35 42 31 11 -6z m109
-19 c4 -6 4 -18 1 -27 -5 -12 -9 -13 -21 -3 -8 7 -15 19 -15 26 0 16 26 19 35
4z"/>
<path d="M3900 2220 l0 -90 130 0 130 0 0 90 0 90 -130 0 -130 0 0 -90z"/>
</g>
</svg>
